<svg width="65" height="13" xmlns="http://www.w3.org/2000/svg" fill="#ffffff" class="stars-overlay__09f24__Qd8rf"><title>4.5 star rating</title><path d="M22.3106722,11.4223675 L21.427114,7.41932581 L24.3547808,4.67173634 L20.461724,4.28662908 L18.9457902,0.657554249 L17.4780492,4.28673733 L13.5072918,4.67196968 L16.4930295,7.41875996 L15.5712342,11.4189352 L18.9422094,9.25982259 L22.3106722,11.4223675 Z" stroke="#FF9242" fill-opacity="0" stroke-width="0.5"></path><path d="M9.38438489,11.4223675 L8.50082678,7.41932581 L11.4284935,4.67173634 L7.53543676,4.28662908 L6.01950297,0.657554249 L4.5517619,4.28673733 L0.581004571,4.67196968 L3.56674221,7.41875996 L2.64494691,11.4189352 L6.01592214,9.25982259 L9.38438489,11.4223675 Z" stroke="#FF9242" fill-opacity="0" stroke-width="0.5"></path><path d="M35.3843849,11.4223675 L34.5008268,7.41932581 L37.4284935,4.67173634 L33.5354368,4.28662908 L32.019503,0.657554249 L30.5517619,4.28673733 L26.5810046,4.67196968 L29.5667422,7.41875996 L28.6449469,11.4189352 L32.0159221,9.25982259 L35.3843849,11.4223675 Z" stroke="#FF9242" fill-opacity="0" stroke-width="0.5"></path><path d="M48.3843849,11.4223675 L47.5008268,7.41932581 L50.4284935,4.67173634 L46.5354368,4.28662908 L45.019503,0.657554249 L43.5517619,4.28673733 L39.5810046,4.67196968 L42.5667422,7.41875996 L41.6449469,11.4189352 L45.0159221,9.25982259 L48.3843849,11.4223675 Z" stroke="#FF9242" fill-opacity="0" stroke-width="0.5"></path><path d="M61.3843849,11.4223675 L60.5008268,7.41932581 L63.4284935,4.67173634 L59.5354368,4.28662908 L58.019503,0.657554249 L56.5517619,4.28673733 L52.5810046,4.67196968 L55.5667422,7.41875996 L54.6449469,11.4189352 L58.0159221,9.25982259 L61.3843849,11.4223675 Z" stroke="#FF9242" fill-opacity="0" stroke-width="0.5"></path></svg>